<svg xmlns="http://www.w3.org/2000/svg" viewBox="0 0 16 16" fill="none" shape-rendering="crispEdges" aria-hidden="true" width="256" height="256"><!-- Generated by DiceBear (https://dicebear.com) --><metadata xmlns:rdf="http://www.w3.org/1999/02/22-rdf-syntax-ns#" xmlns:xsi="http://www.w3.org/2001/XMLSchema-instance" xmlns:dc="http://purl.org/dc/elements/1.1/" xmlns:dcterms="http://purl.org/dc/terms/"><rdf:RDF><rdf:Description><dc:title>Pixel Art</dc:title><dc:creator>DiceBear</dc:creator><dc:source xsi:type="dcterms:URI">https://www.figma.com/community/file/1198754108850888330</dc:source><dcterms:license xsi:type="dcterms:URI">https://creativecommons.org/publicdomain/zero/1.0/</dcterms:license><dc:rights>“Pixel Art” (https://www.figma.com/community/file/1198754108850888330) by “DiceBear”, licensed under “CC0 1.0” (https://creativecommons.org/publicdomain/zero/1.0/)</dc:rights></rdf:Description></rdf:RDF></metadata><defs><g id="clothes-variant20-4d67202d"><rect x="2" y="2" width="8" height="2" fill="#5bc0de"/><rect x="2" y="2" width="1" height="2" fill="white" fill-opacity=".3"/><rect x="9" y="2" width="1" height="2" fill="white" fill-opacity=".3"/></g><g id="eyes-variant12-4d67202d"><path fill-rule="evenodd" clip-rule="evenodd" d="M1 1h1v2H0V2h1zm5 0h1v2H5V2h1z" fill="white"/><path fill-rule="evenodd" clip-rule="evenodd" d="M2 1v1H1v1h2V1zm5 0v1H6v1h2V1z" fill="#697b94"/><path fill-rule="evenodd" clip-rule="evenodd" d="M2 1v1h1V1zM1 2v1h1V2zm6-1v1h1V1zM6 2v1h1V2z" fill="white" fill-opacity=".5"/></g><g id="glasses-light02-4d67202d"><path fill-rule="evenodd" clip-rule="evenodd" d="M12 1H0v1h1v2h4V3h2v1h4V2h1zm-2 1H7v1h3zM5 3H2V2h3z" fill="#43677d"/><rect x="2" y="2" width="3" height="1" fill="white" fill-opacity=".3"/><rect y="1" width="1" height="1" fill="white" fill-opacity=".2"/><rect x="5" y="1" width="2" height="1" fill="white" fill-opacity=".2"/><rect x="11" y="1" width="1" height="1" fill="white" fill-opacity=".2"/><rect x="7" y="2" width="3" height="1" fill="white" fill-opacity=".3"/></g><g id="mouth-sad09-4d67202d"><path d="M0 1v1h1V1h3V0H1v1z" fill="#c98276"/></g><g id="hair-short13-4d67202d"><rect x="3" y="2" width="10" height="2" fill="#603a14"/><rect x="2" y="2" width="1" height="1" fill="#603a14"/><rect x="2" y="1" width="1" height="1" fill="#603a14"/><rect x="2" y="2" width="1" height="1" fill="#603a14"/><rect x="13" width="1" height="1" fill="#603a14"/><rect x="2" y="4" width="1" height="1" fill="#603a14"/><rect x="5" width="1" height="1" fill="#603a14"/><rect x="4" y="1" width="1" height="1" fill="#603a14"/><rect x="6" y="1" width="1" height="1" fill="#603a14"/><rect x="9" y="1" width="1" height="1" fill="#603a14"/><rect x="8" width="1" height="1" fill="#603a14"/><rect x="12" y="1" width="1" height="1" fill="#603a14"/><rect x="13" y="2" width="1" height="1" fill="#603a14"/><rect x="12" y="1" width="1" height="1" fill="#603a14"/><rect x="14" y="3" width="1" height="1" fill="#603a14"/><rect x="13" y="4" width="1" height="1" fill="#603a14"/><rect x="1" y="3" width="1" height="1" fill="#603a14"/></g><clipPath id="clip-4d67202d"><rect width="16" height="16" rx="0" ry="0"/></clipPath></defs><g clip-path="url(#clip-4d67202d)"><rect width="16" height="16" fill="#765c26"/><path d="M4 2h8v1h1v3h1v2h-1v3h-1v1H9v1h4v1h1v2H2v-2h1v-1h4v-1H4v-1H3V8H2V6h1V3h1z" fill="#ffdbac"/><path d="M4 2h8v1h1v3h1v2h-1v3h-1v1H4v-1H3V8H2V6h1V3h1z" fill="white" fill-opacity=".1"/><use transform="translate(2 12)" href="#clothes-variant20-4d67202d"/><use transform="translate(4 5)" href="#eyes-variant12-4d67202d"/><use transform="translate(2 4)" href="#glasses-light02-4d67202d"/><use transform="translate(6 9)" href="#mouth-sad09-4d67202d"/><use href="#hair-short13-4d67202d"/></g></svg>